<?xml version="1.0" encoding="UTF-8"?>
<svg id="a" data-name="Ebene 1" xmlns="http://www.w3.org/2000/svg" xmlns:xlink="http://www.w3.org/1999/xlink" viewBox="0 0 990.74 950">
  <defs>
    <style>
      .o {
        stroke: #97d21d;
        stroke-linecap: round;
        stroke-width: 22px;
      }

      .o, .p {
        fill: none;
        stroke-miterlimit: 10;
      }

      .q {
        fill: #d1e19a;
      }

      .r {
        letter-spacing: 0em;
      }

      .s {
        letter-spacing: -.02em;
      }

      .t {
        fill: #8be31d;
      }

      .u {
        fill: #a9fc59;
      }

      .v {
        font-family: SegoeUIVariable-SemiboldDisplay, 'Segoe UI Variable';
        font-size: 150px;
        font-variation-settings: 'wght' 600, 'opsz' 36;
        font-weight: 600;
      }

      .v, .w {
        fill: gray;
      }

      .x {
        fill: url(#m);
      }

      .p {
        stroke: gray;
        stroke-width: 16px;
      }
    </style>
    <linearGradient id="m" data-name="Unbenannter Verlauf 249" x1="162.7" y1="361.59" x2="785.67" y2="361.59" gradientUnits="userSpaceOnUse">
      <stop offset="0" stop-color="#97d21d"/>
      <stop offset="1" stop-color="gray"/>
    </linearGradient>
  </defs>
  <path class="q" d="M812.96,0H177.77C79.59,0,0,79.59,0,177.78v594.44c0,98.19,79.59,177.78,177.77,177.78h635.19c98.18,0,177.78-79.59,177.78-177.78V177.78C990.74,79.59,911.14,0,812.96,0Z"/>
  <path id="b" data-name="Hashtag" class="w" d="M337.43,198.04l4.09-18.87-25.44-.42,5.22-24.07-19.31-.31-5.22,24.07-23.78-.38,5.22-24.08-19.32-.31-5.21,24.08-23.4-.38-4.09,18.87,23.4.38-5.26,24.28-23.4-.38-4.09,18.88,23.39.38-5.23,24.15,19.31.31,5.24-24.15,23.78.38-5.24,24.16,19.32.31,5.23-24.15,25.44.41,4.09-18.88-25.44-.41,5.26-24.28,25.44.41ZM287.42,221.6l-23.78-.39,5.26-24.27,23.78.38-5.26,24.28Z"/>
  <g id="c" data-name="Stift">
    <path id="d" data-name="Stifspitze" class="t" d="M831.61,312.06l64.31,38.1,17.83-30.06s7.69-18.17-5.59-27.61-29.71-18.17-29.71-18.17c0,0-16.78-8.39-27.96,6.99s-18.87,30.76-18.87,30.76Z"/>
    <polygon id="e" data-name="Mittelteil" class="t" points="819.03 327.79 884.73 369.73 807.84 494.86 741.43 455.01 819.03 327.79"/>
    <polygon id="f" data-name="Mittelteil rechts" class="u" points="854.09 350.16 884.76 369.73 807.86 494.86 776.5 476.05 854.09 350.16"/>
    <path id="g" data-name="Spitze" class="t" d="M728.59,557.84l61.32-46.97c1.74-1.34,1.57-4.01-.33-5.11l-51.31-29.62c-1.9-1.1-4.31.09-4.59,2.27l-10.02,76.59c-.36,2.72,2.75,4.51,4.93,2.84Z"/>
  </g>
  <line id="h" data-name="Balken unter &amp;quot;MD&amp;quot; unten" class="o" x1="256.86" y1="599.94" x2="504.32" y2="599.94"/>
  <line id="i" data-name="Balken unter &amp;quot;MD&amp;quot; oben" class="o" x1="256.86" y1="561.26" x2="675.35" y2="561.26"/>
  <text class="v" transform="translate(145.07 825.51)"><tspan x="0" y="0">M</tspan><tspan class="s" x="137.4" y="0">D</tspan><tspan x="239.87" y="0">W</tspan><tspan class="r" x="382.76" y="0">r</tspan><tspan x="440.41" y="0">iter</tspan></text>
  <g>
    <path id="j" data-name="M" class="p" d="M250.56,302.98v213.2h49.28v-128.62l44.39,87.43c.67,1.15,1.94,2.98,4.12,4.55,3.14,2.26,6.34,2.65,7.76,2.74h17.48c1.16.11,3.91.22,6.86-1.28,3.69-1.87,5.27-5.01,5.72-6,14.21-29.03,28.43-58.06,42.64-87.09v128.27h48.58v-213.2h-50.97c-.69.04-1.45.16-2.26.44-3.62,1.25-5.24,4.69-5.67,5.68-17.79,34.72-35.57,69.44-53.36,104.16l-52.19-102.52c-.56-1.19-1.85-3.51-4.47-5.34-3.82-2.68-7.84-2.5-9.04-2.4h-48.87Z"/>
    <path id="k" data-name="D" class="p" d="M708.18,409.56c-.03-7.12-.91-46.27-32.69-76.97-34.43-33.26-77.8-30.22-84.28-29.65h-72.7c-.41,0-4.86.05-7.17,3.57-1.06,1.61-1.21,3.27-1.22,4.14.09,132.4.06,165.46,0,198.52.04.6.28,2.86,2.14,4.76,1.92,1.97,4.27,2.21,4.85,2.26h79.22c6.34.4,49.07,2.34,81.95-31.21,29.9-30.51,30.01-68.29,29.9-75.42ZM648.69,437.21c-12.9,25.34-47.15,38.92-86.14,34.44.06-20.05.09-40.1,0-120.47,37.29-6,71.01,5.91,84.83,30.13,3.06,5.37,7.03,14.64,6.98,28.24.49,12.99-2.84,22.1-5.67,27.65Z"/>
  </g>
  <path id="l" data-name="Rahmen unten" class="t" d="M220.17,93.26c-1.26-.27-31.08-6.25-46.96,12.98-4.71,5.7-6.82,11.96-7.79,16.85-.23,48.08-.47,96.16-.7,144.23-3.36-.41-12.79-1.09-21.67,4.67-10.64,6.89-16.22,20.24-14.46,34.23v304.08c-.25,1.66-2.79,20.53,11.18,33.32,9.27,8.48,20.26,9.22,23.53,9.32l586.72-.93c1.6.26,20.09,2.92,33.2-10.95,10.75-11.36,10.06-25.54,9.9-27.96v-77.83l-25.4,15.61-.47,59.88c.13.68,1.56,9.34-5.01,15.73-6.62,6.43-15.31,4.69-15.96,4.54-187.18-.16-374.37-.31-561.55-.47l-.23-493.75c-.14-1.18-1.07-10.47,6.06-17.71,7.27-7.38,16.81-6.42,17.94-6.29h425.94v102.99c0,1.65.19,18.26,13.05,26.68,4.88,3.19,9.84,4.07,13.05,4.31h106.95v112.54h18.17v-116.97l-144.47-149.11H220.17Z"/>
  <path id="n" data-name="Rahmen oben mit Farbverlauf" class="x" d="M184.73,630.57c-7.85,1.12-15.3-1.55-19.17-7.14-2.21-3.18-2.72-6.55-2.82-8.66V133.49c-.12-1.84-1.01-21.14,14.27-33.18,10.49-8.26,22.2-8.07,25.53-7.9,146.22.28,292.43.57,438.65.85l144.47,149.11v116.97h-18.17l-2.18-112.54h-101.71c-1.86.07-11.78.24-20.04-7.49-8.09-7.56-8.71-17.2-8.8-19.12-.1-35.79-.21-71.58-.31-107.37H208.5c-1.25,0-13.06.19-19.88,9.84-4.07,5.76-4.2,11.85-4.12,14.16.08,164.58.16,329.17.23,493.75Z"/>
</svg>